<svg class="icon" viewBox="0 0 1024 1024" xmlns="http://www.w3.org/2000/svg" width="150" height="40"><defs><style/></defs><path d="M906.24 157.184H562.176l-25.6 65.536h316.928c22.016 0 39.424 17.408 39.424 39.424v249.344L771.072 389.632c-12.8-12.8-33.28-12.8-46.08 0l-104.96 104.96 65.024 37.888L547.84 800.768l-33.792 65.536H906.24c29.184 0 52.736-23.552 52.736-52.736v-604.16c0-28.672-23.552-52.224-52.736-52.224zm-360.448 412.16l-93.696 93.696-128-128c-10.24-10.24-27.136-10.24-37.376 0L130.56 690.688V261.632c0-22.016 17.92-39.424 39.424-39.424h256.512l25.6-65.536H117.76c-29.184 0-52.736 23.552-52.736 52.736V814.08c0 29.184 23.552 52.736 52.736 52.736h282.112l33.792-65.536 117.248-228.864-5.12-3.072z" fill="#8a8a8a"/><path d="M411.136 866.816h-23.552L536.576 576 325.632 452.608l115.712-295.424h22.016l-112.128 286.72 212.48 124.416z" fill="#8a8a8a"/><path d="M523.776 866.816h-23.552l172.032-330.24-219.136-128 98.304-251.392h20.992L478.208 399.36l221.184 129.536z" fill="#8a8a8a"/></svg>