<svg class="icon" viewBox="0 0 1024 1024" xmlns="http://www.w3.org/2000/svg" width="32" height="32"><defs><style/></defs><path d="M803.163 407.977h-64.259V258.458c0-125.229-101.721-227.06-226.875-227.06-125.157 0-226.993 101.831-226.993 227.06v149.519h-64.204c-30.957 0-56.047 25.104-56.047 56.084v409.385c0 31.028 25.09 56.134 56.047 56.134h582.387c30.964 0 55.997-25.105 55.997-56.134V464.061c-.004-30.985-25.084-56.084-56.053-56.084zM543.505 679.414v89.398c0 3.997-3.302 7.356-7.36 7.356h-48.178c-4.106 0-7.411-3.365-7.411-7.356v-89.398c-22.637-11.576-38.318-34.795-38.318-62.014 0-38.505 31.249-69.824 69.736-69.824 38.543 0 69.795 31.319 69.795 69.824.052 27.219-15.627 50.438-38.264 62.014zM651.84 407.977H372.219v-145.82c0-77.129 62.775-139.941 139.861-139.941 77.094 0 139.755 62.813 139.755 139.941l.005 145.82zm0 0" /><path d="M803.163 407.977h-64.259V258.458c0-125.229-101.721-227.06-226.875-227.06-125.157 0-226.993 101.831-226.993 227.06v149.519h-64.204c-30.957 0-56.047 25.104-56.047 56.084v409.385c0 31.028 25.09 56.134 56.047 56.134h582.387c30.964 0 55.997-25.105 55.997-56.134V464.061c-.004-30.985-25.084-56.084-56.053-56.084zM543.505 679.414v89.398c0 3.997-3.302 7.356-7.36 7.356h-48.178c-4.106 0-7.411-3.365-7.411-7.356v-89.398c-22.637-11.576-38.318-34.795-38.318-62.014 0-38.505 31.249-69.824 69.736-69.824 38.543 0 69.795 31.319 69.795 69.824.052 27.219-15.627 50.438-38.264 62.014zM651.84 407.977H372.219v-145.82c0-77.129 62.775-139.941 139.861-139.941 77.094 0 139.755 62.813 139.755 139.941l.005 145.82zm0 0"/></svg>