<svg class="icon" viewBox="0 0 1024 1024" xmlns="http://www.w3.org/2000/svg" width="32" height="32"><defs><style/></defs><path d="M263.877 326.892c0 137.846 110.277 248.123 248.123 248.123s248.123-110.277 248.123-248.123S649.846 78.77 512 78.77 263.877 189.046 263.877 326.892z" /><path d="M752.246 571.077c-19.692-15.754-47.261-15.754-66.954 3.938C641.97 618.338 578.954 645.908 512 645.908s-129.97-27.57-173.292-70.893c-19.693-19.692-47.262-19.692-66.954-3.938-74.83 63.015-129.97 145.723-149.662 259.938-7.877 47.262 23.631 82.708 70.893 82.708h638.03c47.262 0 78.77-39.385 70.893-82.708-15.754-110.277-70.893-192.984-149.662-259.938z"/></svg>