<svg class="icon" viewBox="0 0 1024 1024" xmlns="http://www.w3.org/2000/svg" width="32" height="32"><defs><style/></defs><path d="M0 512a512 512 0 101024 0A512 512 0 100 512z" fill="#00A104"/><path d="M637.952 397.824c8.192 0 16.384.512 24.064 1.536-21.504-100.352-129.024-175.104-251.904-175.104-137.216 0-249.856 93.696-249.856 211.968 0 68.608 37.376 124.928 99.84 168.448l-25.088 74.752 87.04-43.52c31.232 6.144 56.32 12.8 87.552 12.8 7.68 0 15.36-.512 23.04-1.024-5.12-16.384-7.68-34.304-7.68-52.224 1.024-108.544 94.72-197.632 212.992-197.632zm-135.68-72.192c21.504 0 38.912 17.408 38.912 38.912 0 21.504-17.408 38.912-38.912 38.912-21.504 0-38.912-17.408-38.912-38.912 0-21.504 17.408-38.912 38.912-38.912zm-175.104 77.824c-21.504 0-38.912-17.408-38.912-38.912 0-21.504 17.408-38.912 38.912-38.912s38.912 17.408 38.912 38.912c0 21.504-17.408 38.912-38.912 38.912zm537.088 189.952c0-99.84-99.84-181.248-211.968-181.248-118.784 0-212.48 81.408-212.48 181.248s93.696 181.248 212.48 181.248c25.088 0 50.176-6.144 74.752-12.8l68.608 37.888-18.432-62.464c49.664-37.376 87.04-87.552 87.04-143.872zm-277.504-28.16a27.533 27.533 0 01-27.648-27.648c0-15.36 12.288-27.648 27.648-27.648S614.4 522.24 614.4 537.6a27.533 27.533 0 01-27.648 27.648zm137.216 2.048a27.533 27.533 0 01-27.648-27.648A27.533 27.533 0 01723.968 512a27.533 27.533 0 0127.648 27.648 27.533 27.533 0 01-27.648 27.648z" fill="#FFF"/></svg>